<mxfile host="app.diagrams.net" agent="Mozilla/5.0 (Windows NT 10.0; Win64; x64; rv:136.0) Gecko/20100101 Firefox/136.0" version="26.1.0" pages="3">
  <diagram name="1 oldal" id="os-rR_QZ68PfVQjUXK_l">
    <mxGraphModel dx="1687" dy="911" grid="1" gridSize="10" guides="1" tooltips="1" connect="1" arrows="1" fold="1" page="1" pageScale="1" pageWidth="827" pageHeight="1169" math="0" shadow="0">
      <root>
        <mxCell id="0" />
        <mxCell id="1" parent="0" />
        <mxCell id="lVFUm1nHSPRErQTZZV4C-1" value="" style="shape=umlLifeline;perimeter=lifelinePerimeter;whiteSpace=wrap;html=1;container=1;dropTarget=0;collapsible=0;recursiveResize=0;outlineConnect=0;portConstraint=eastwest;newEdgeStyle={&quot;curved&quot;:0,&quot;rounded&quot;:0};size=0;" vertex="1" parent="1">
          <mxGeometry x="10" y="130" width="100" height="600" as="geometry" />
        </mxCell>
        <mxCell id="lVFUm1nHSPRErQTZZV4C-6" value="" style="html=1;points=[[0,0,0,0,5],[0,1,0,0,-5],[1,0,0,0,5],[1,1,0,0,-5]];perimeter=orthogonalPerimeter;outlineConnect=0;targetShapes=umlLifeline;portConstraint=eastwest;newEdgeStyle={&quot;curved&quot;:0,&quot;rounded&quot;:0};" vertex="1" parent="lVFUm1nHSPRErQTZZV4C-1">
          <mxGeometry x="45" y="10" width="10" height="560" as="geometry" />
        </mxCell>
        <mxCell id="lVFUm1nHSPRErQTZZV4C-2" value="Controller" style="shape=umlActor;verticalLabelPosition=bottom;verticalAlign=top;html=1;" vertex="1" parent="1">
          <mxGeometry x="45" y="40" width="30" height="60" as="geometry" />
        </mxCell>
        <mxCell id="lVFUm1nHSPRErQTZZV4C-3" value="m: Mycelium" style="shape=umlLifeline;perimeter=lifelinePerimeter;whiteSpace=wrap;html=1;container=1;dropTarget=0;collapsible=0;recursiveResize=0;outlineConnect=0;portConstraint=eastwest;newEdgeStyle={&quot;curved&quot;:0,&quot;rounded&quot;:0};size=40;" vertex="1" parent="1">
          <mxGeometry x="260" y="135" width="120" height="585" as="geometry" />
        </mxCell>
        <mxCell id="lVFUm1nHSPRErQTZZV4C-7" value="" style="html=1;points=[[0,0,0,0,5],[0,1,0,0,-5],[1,0,0,0,5],[1,1,0,0,-5]];perimeter=orthogonalPerimeter;outlineConnect=0;targetShapes=umlLifeline;portConstraint=eastwest;newEdgeStyle={&quot;curved&quot;:0,&quot;rounded&quot;:0};" vertex="1" parent="lVFUm1nHSPRErQTZZV4C-3">
          <mxGeometry x="55" y="60" width="10" height="500" as="geometry" />
        </mxCell>
        <mxCell id="lVFUm1nHSPRErQTZZV4C-4" value="Create" style="endArrow=open;endSize=12;dashed=1;html=1;rounded=0;" edge="1" parent="1" source="lVFUm1nHSPRErQTZZV4C-6">
          <mxGeometry x="-0.0256" width="160" relative="1" as="geometry">
            <mxPoint x="70" y="150" as="sourcePoint" />
            <mxPoint x="260" y="150" as="targetPoint" />
            <mxPoint as="offset" />
          </mxGeometry>
        </mxCell>
        <mxCell id="lVFUm1nHSPRErQTZZV4C-5" value="&lt;span data-end=&quot;171&quot; data-start=&quot;144&quot;&gt;mge: MyceliumGrowthEvaluator&lt;/span&gt; " style="shape=umlLifeline;perimeter=lifelinePerimeter;whiteSpace=wrap;html=1;container=1;dropTarget=0;collapsible=0;recursiveResize=0;outlineConnect=0;portConstraint=eastwest;newEdgeStyle={&quot;curved&quot;:0,&quot;rounded&quot;:0};size=40;" vertex="1" parent="1">
          <mxGeometry x="505" y="210" width="200" height="370" as="geometry" />
        </mxCell>
        <mxCell id="lVFUm1nHSPRErQTZZV4C-8" value="" style="html=1;points=[[0,0,0,0,5],[0,1,0,0,-5],[1,0,0,0,5],[1,1,0,0,-5]];perimeter=orthogonalPerimeter;outlineConnect=0;targetShapes=umlLifeline;portConstraint=eastwest;newEdgeStyle={&quot;curved&quot;:0,&quot;rounded&quot;:0};" vertex="1" parent="lVFUm1nHSPRErQTZZV4C-5">
          <mxGeometry x="95" y="70" width="10" height="270" as="geometry" />
        </mxCell>
        <mxCell id="lVFUm1nHSPRErQTZZV4C-9" value="visit(t)" style="html=1;verticalAlign=bottom;endArrow=block;curved=0;rounded=0;" edge="1" parent="1">
          <mxGeometry relative="1" as="geometry">
            <mxPoint x="325" y="290" as="sourcePoint" />
            <mxPoint x="599.9999999999998" y="290" as="targetPoint" />
          </mxGeometry>
        </mxCell>
        <mxCell id="lVFUm1nHSPRErQTZZV4C-11" value="&lt;span data-end=&quot;171&quot; data-start=&quot;144&quot;&gt;t: Tecton&lt;/span&gt; " style="shape=umlLifeline;perimeter=lifelinePerimeter;whiteSpace=wrap;html=1;container=1;dropTarget=0;collapsible=0;recursiveResize=0;outlineConnect=0;portConstraint=eastwest;newEdgeStyle={&quot;curved&quot;:0,&quot;rounded&quot;:0};size=40;" vertex="1" parent="1">
          <mxGeometry x="760" y="70" width="200" height="660" as="geometry" />
        </mxCell>
        <mxCell id="lVFUm1nHSPRErQTZZV4C-13" value="" style="html=1;points=[[0,0,0,0,5],[0,1,0,0,-5],[1,0,0,0,5],[1,1,0,0,-5]];perimeter=orthogonalPerimeter;outlineConnect=0;targetShapes=umlLifeline;portConstraint=eastwest;newEdgeStyle={&quot;curved&quot;:0,&quot;rounded&quot;:0};" vertex="1" parent="lVFUm1nHSPRErQTZZV4C-11">
          <mxGeometry x="95" y="230" width="10" height="390" as="geometry" />
        </mxCell>
        <mxCell id="lVFUm1nHSPRErQTZZV4C-14" value="accept(mge, m)" style="html=1;verticalAlign=bottom;endArrow=block;curved=0;rounded=0;" edge="1" target="lVFUm1nHSPRErQTZZV4C-13" parent="1" source="lVFUm1nHSPRErQTZZV4C-8">
          <mxGeometry relative="1" as="geometry">
            <mxPoint x="730" y="225" as="sourcePoint" />
            <Array as="points">
              <mxPoint x="740" y="310" />
            </Array>
          </mxGeometry>
        </mxCell>
        <mxCell id="lVFUm1nHSPRErQTZZV4C-15" value="" style="html=1;verticalAlign=bottom;endArrow=open;dashed=1;endSize=8;curved=0;rounded=0;" edge="1" parent="1">
          <mxGeometry relative="1" as="geometry">
            <mxPoint x="609.9999999999998" y="480" as="targetPoint" />
            <mxPoint x="854.9999999999998" y="480" as="sourcePoint" />
            <Array as="points">
              <mxPoint x="730" y="480" />
            </Array>
          </mxGeometry>
        </mxCell>
        <mxCell id="lVFUm1nHSPRErQTZZV4C-17" value="opt" style="shape=umlFrame;whiteSpace=wrap;html=1;pointerEvents=0;" vertex="1" parent="1">
          <mxGeometry x="240" y="330" width="730" height="110" as="geometry" />
        </mxCell>
        <mxCell id="lVFUm1nHSPRErQTZZV4C-19" value="[nÅ‘het]" style="text;html=1;align=center;verticalAlign=middle;resizable=0;points=[];autosize=1;" vertex="1" parent="1">
          <mxGeometry x="245" y="365" width="60" height="30" as="geometry" />
        </mxCell>
        <mxCell id="lVFUm1nHSPRErQTZZV4C-21" value="beGrown()" style="html=1;verticalAlign=bottom;endArrow=block;curved=0;rounded=0;" edge="1" parent="1">
          <mxGeometry x="-0.0377" relative="1" as="geometry">
            <mxPoint x="854.9999999999998" y="384.66" as="sourcePoint" />
            <mxPoint x="325" y="384.66" as="targetPoint" />
            <Array as="points">
              <mxPoint x="600" y="384.66" />
            </Array>
            <mxPoint as="offset" />
          </mxGeometry>
        </mxCell>
        <mxCell id="lVFUm1nHSPRErQTZZV4C-22" value="" style="html=1;verticalAlign=bottom;endArrow=open;dashed=1;endSize=8;curved=0;rounded=0;" edge="1" parent="1">
          <mxGeometry relative="1" as="geometry">
            <mxPoint x="854.9999999999998" y="404.66" as="targetPoint" />
            <mxPoint x="325" y="404.66" as="sourcePoint" />
            <Array as="points">
              <mxPoint x="590" y="404.66" />
            </Array>
          </mxGeometry>
        </mxCell>
        <mxCell id="lVFUm1nHSPRErQTZZV4C-26" value="" style="html=1;verticalAlign=bottom;endArrow=open;dashed=1;endSize=8;curved=0;rounded=0;" edge="1" parent="1">
          <mxGeometry relative="1" as="geometry">
            <mxPoint x="325" y="510" as="targetPoint" />
            <mxPoint x="599.9999999999998" y="510" as="sourcePoint" />
          </mxGeometry>
        </mxCell>
        <mxCell id="lVFUm1nHSPRErQTZZV4C-28" value="Create" style="endArrow=open;endSize=12;dashed=1;html=1;rounded=0;" edge="1" parent="1" source="lVFUm1nHSPRErQTZZV4C-7">
          <mxGeometry x="-0.0256" width="160" relative="1" as="geometry">
            <mxPoint x="322" y="230" as="sourcePoint" />
            <mxPoint x="506" y="230" as="targetPoint" />
            <mxPoint as="offset" />
          </mxGeometry>
        </mxCell>
        <mxCell id="lVFUm1nHSPRErQTZZV4C-29" value="" style="shape=umlDestroy;whiteSpace=wrap;html=1;strokeWidth=3;targetShapes=umlLifeline;" vertex="1" parent="1">
          <mxGeometry x="590" y="570" width="30" height="30" as="geometry" />
        </mxCell>
        <mxCell id="lVFUm1nHSPRErQTZZV4C-24" value="delete()" style="html=1;verticalAlign=bottom;endArrow=block;curved=0;rounded=0;" edge="1" parent="1">
          <mxGeometry x="-0.0377" relative="1" as="geometry">
            <mxPoint x="855" y="630" as="sourcePoint" />
            <mxPoint x="325" y="630" as="targetPoint" />
            <Array as="points">
              <mxPoint x="600" y="630" />
            </Array>
            <mxPoint as="offset" />
          </mxGeometry>
        </mxCell>
        <mxCell id="lVFUm1nHSPRErQTZZV4C-25" value="" style="html=1;verticalAlign=bottom;endArrow=open;dashed=1;endSize=8;curved=0;rounded=0;" edge="1" parent="1">
          <mxGeometry relative="1" as="geometry">
            <mxPoint x="854.9999999999998" y="660" as="targetPoint" />
            <mxPoint x="325" y="660" as="sourcePoint" />
            <Array as="points">
              <mxPoint x="600" y="660" />
            </Array>
          </mxGeometry>
        </mxCell>
        <mxCell id="lVFUm1nHSPRErQTZZV4C-23" value="" style="shape=umlDestroy;whiteSpace=wrap;html=1;strokeWidth=3;targetShapes=umlLifeline;" vertex="1" parent="1">
          <mxGeometry x="305" y="710" width="30" height="30" as="geometry" />
        </mxCell>
        <mxCell id="lVFUm1nHSPRErQTZZV4C-31" value="Note" style="shape=note;size=20;whiteSpace=wrap;html=1;" vertex="1" parent="1">
          <mxGeometry x="160" y="510" width="100" height="100" as="geometry" />
        </mxCell>
      </root>
    </mxGraphModel>
  </diagram>
  <diagram id="di32PcxvHkJ_G0L5s2Sh" name="2 oldal">
    <mxGraphModel dx="1434" dy="774" grid="1" gridSize="10" guides="1" tooltips="1" connect="1" arrows="1" fold="1" page="1" pageScale="1" pageWidth="827" pageHeight="1169" math="0" shadow="0">
      <root>
        <mxCell id="0" />
        <mxCell id="1" parent="0" />
        <mxCell id="OIX6oTfRHXlpQNTjHoEB-1" value="mb: Mushroombody" style="shape=umlLifeline;perimeter=lifelinePerimeter;whiteSpace=wrap;html=1;container=1;dropTarget=0;collapsible=0;recursiveResize=0;outlineConnect=0;portConstraint=eastwest;newEdgeStyle={&quot;curved&quot;:0,&quot;rounded&quot;:0};" vertex="1" parent="1">
          <mxGeometry x="60" y="40" width="120" height="510" as="geometry" />
        </mxCell>
        <mxCell id="OIX6oTfRHXlpQNTjHoEB-12" value="" style="html=1;points=[[0,0,0,0,5],[0,1,0,0,-5],[1,0,0,0,5],[1,1,0,0,-5]];perimeter=orthogonalPerimeter;outlineConnect=0;targetShapes=umlLifeline;portConstraint=eastwest;newEdgeStyle={&quot;curved&quot;:0,&quot;rounded&quot;:0};" vertex="1" parent="OIX6oTfRHXlpQNTjHoEB-1">
          <mxGeometry x="55" y="70" width="10" height="430" as="geometry" />
        </mxCell>
        <mxCell id="OIX6oTfRHXlpQNTjHoEB-2" value="target: Tecton" style="shape=umlLifeline;perimeter=lifelinePerimeter;whiteSpace=wrap;html=1;container=1;dropTarget=0;collapsible=0;recursiveResize=0;outlineConnect=0;portConstraint=eastwest;newEdgeStyle={&quot;curved&quot;:0,&quot;rounded&quot;:0};" vertex="1" parent="1">
          <mxGeometry x="430" y="40" width="120" height="510" as="geometry" />
        </mxCell>
        <mxCell id="OIX6oTfRHXlpQNTjHoEB-3" value="location: Tecton" style="shape=umlLifeline;perimeter=lifelinePerimeter;whiteSpace=wrap;html=1;container=1;dropTarget=0;collapsible=0;recursiveResize=0;outlineConnect=0;portConstraint=eastwest;newEdgeStyle={&quot;curved&quot;:0,&quot;rounded&quot;:0};" vertex="1" parent="1">
          <mxGeometry x="250" y="40" width="120" height="510" as="geometry" />
        </mxCell>
        <mxCell id="OIX6oTfRHXlpQNTjHoEB-4" value="" style="html=1;points=[[0,0,0,0,5],[0,1,0,0,-5],[1,0,0,0,5],[1,1,0,0,-5]];perimeter=orthogonalPerimeter;outlineConnect=0;targetShapes=umlLifeline;portConstraint=eastwest;newEdgeStyle={&quot;curved&quot;:0,&quot;rounded&quot;:0};" vertex="1" parent="OIX6oTfRHXlpQNTjHoEB-3">
          <mxGeometry x="55" y="80" width="10" height="80" as="geometry" />
        </mxCell>
        <mxCell id="OIX6oTfRHXlpQNTjHoEB-5" value="distance(target)" style="html=1;verticalAlign=bottom;endArrow=block;curved=0;rounded=0;entryX=0;entryY=0;entryDx=0;entryDy=5;" edge="1" target="OIX6oTfRHXlpQNTjHoEB-4" parent="1" source="OIX6oTfRHXlpQNTjHoEB-12">
          <mxGeometry relative="1" as="geometry">
            <mxPoint x="120" y="125" as="sourcePoint" />
          </mxGeometry>
        </mxCell>
        <mxCell id="OIX6oTfRHXlpQNTjHoEB-6" value="" style="html=1;verticalAlign=bottom;endArrow=open;dashed=1;endSize=8;curved=0;rounded=0;exitX=0;exitY=1;exitDx=0;exitDy=-5;" edge="1" source="OIX6oTfRHXlpQNTjHoEB-4" parent="1" target="OIX6oTfRHXlpQNTjHoEB-12">
          <mxGeometry relative="1" as="geometry">
            <mxPoint x="120" y="195" as="targetPoint" />
          </mxGeometry>
        </mxCell>
        <mxCell id="OIX6oTfRHXlpQNTjHoEB-7" value="&lt;div&gt;opt&lt;/div&gt;" style="shape=umlFrame;whiteSpace=wrap;html=1;pointerEvents=0;" vertex="1" parent="1">
          <mxGeometry x="30" y="220" width="530" height="130" as="geometry" />
        </mxCell>
        <mxCell id="OIX6oTfRHXlpQNTjHoEB-8" value="[elÃ©g kÃ¶zel van]" style="text;html=1;align=center;verticalAlign=middle;resizable=0;points=[];autosize=1;strokeColor=none;fillColor=none;" vertex="1" parent="1">
          <mxGeometry x="20" y="250" width="110" height="30" as="geometry" />
        </mxCell>
        <mxCell id="OIX6oTfRHXlpQNTjHoEB-9" value="" style="html=1;points=[[0,0,0,0,5],[0,1,0,0,-5],[1,0,0,0,5],[1,1,0,0,-5]];perimeter=orthogonalPerimeter;outlineConnect=0;targetShapes=umlLifeline;portConstraint=eastwest;newEdgeStyle={&quot;curved&quot;:0,&quot;rounded&quot;:0};" vertex="1" parent="1">
          <mxGeometry x="485" y="255" width="10" height="80" as="geometry" />
        </mxCell>
        <mxCell id="OIX6oTfRHXlpQNTjHoEB-10" value="transferSpores(mushroomSpores)" style="html=1;verticalAlign=bottom;endArrow=block;curved=0;rounded=0;entryX=0;entryY=0;entryDx=0;entryDy=5;" edge="1" target="OIX6oTfRHXlpQNTjHoEB-9" parent="1" source="OIX6oTfRHXlpQNTjHoEB-12">
          <mxGeometry relative="1" as="geometry">
            <mxPoint x="120" y="260" as="sourcePoint" />
          </mxGeometry>
        </mxCell>
        <mxCell id="OIX6oTfRHXlpQNTjHoEB-11" value="" style="html=1;verticalAlign=bottom;endArrow=open;dashed=1;endSize=8;curved=0;rounded=0;exitX=0;exitY=1;exitDx=0;exitDy=-5;" edge="1" source="OIX6oTfRHXlpQNTjHoEB-9" parent="1" target="OIX6oTfRHXlpQNTjHoEB-12">
          <mxGeometry x="0.0027" relative="1" as="geometry">
            <mxPoint x="120" y="330" as="targetPoint" />
            <mxPoint as="offset" />
          </mxGeometry>
        </mxCell>
        <mxCell id="OIX6oTfRHXlpQNTjHoEB-13" value="ejectSpores(target)" style="html=1;verticalAlign=bottom;startArrow=oval;startFill=1;endArrow=block;startSize=8;curved=0;rounded=0;" edge="1" parent="1">
          <mxGeometry width="60" relative="1" as="geometry">
            <mxPoint x="10" y="130" as="sourcePoint" />
            <mxPoint x="115" y="130" as="targetPoint" />
          </mxGeometry>
        </mxCell>
      </root>
    </mxGraphModel>
  </diagram>
  <diagram id="n35192QQ9PDpCi8JAzE9" name="3 oldal">
    <mxGraphModel dx="1434" dy="774" grid="1" gridSize="10" guides="1" tooltips="1" connect="1" arrows="1" fold="1" page="1" pageScale="1" pageWidth="827" pageHeight="1169" math="0" shadow="0">
      <root>
        <mxCell id="0" />
        <mxCell id="1" parent="0" />
        <mxCell id="e4eeKu0tLdhdqPBlOCCp-1" value="i: Insect" style="shape=umlLifeline;perimeter=lifelinePerimeter;whiteSpace=wrap;html=1;container=1;dropTarget=0;collapsible=0;recursiveResize=0;outlineConnect=0;portConstraint=eastwest;newEdgeStyle={&quot;curved&quot;:0,&quot;rounded&quot;:0};" vertex="1" parent="1">
          <mxGeometry x="80" y="40" width="100" height="300" as="geometry" />
        </mxCell>
        <mxCell id="e4eeKu0tLdhdqPBlOCCp-14" value="" style="html=1;points=[[0,0,0,0,5],[0,1,0,0,-5],[1,0,0,0,5],[1,1,0,0,-5]];perimeter=orthogonalPerimeter;outlineConnect=0;targetShapes=umlLifeline;portConstraint=eastwest;newEdgeStyle={&quot;curved&quot;:0,&quot;rounded&quot;:0};" vertex="1" parent="e4eeKu0tLdhdqPBlOCCp-1">
          <mxGeometry x="45" y="60" width="10" height="220" as="geometry" />
        </mxCell>
        <mxCell id="e4eeKu0tLdhdqPBlOCCp-2" value="location: Tecton" style="shape=umlLifeline;perimeter=lifelinePerimeter;whiteSpace=wrap;html=1;container=1;dropTarget=0;collapsible=0;recursiveResize=0;outlineConnect=0;portConstraint=eastwest;newEdgeStyle={&quot;curved&quot;:0,&quot;rounded&quot;:0};" vertex="1" parent="1">
          <mxGeometry x="245" y="40" width="100" height="300" as="geometry" />
        </mxCell>
        <mxCell id="e4eeKu0tLdhdqPBlOCCp-3" value="spore: StunSpore" style="shape=umlLifeline;perimeter=lifelinePerimeter;whiteSpace=wrap;html=1;container=1;dropTarget=0;collapsible=0;recursiveResize=0;outlineConnect=0;portConstraint=eastwest;newEdgeStyle={&quot;curved&quot;:0,&quot;rounded&quot;:0};" vertex="1" parent="1">
          <mxGeometry x="414" y="40" width="100" height="300" as="geometry" />
        </mxCell>
        <mxCell id="e4eeKu0tLdhdqPBlOCCp-11" value="" style="html=1;points=[[0,0,0,0,5],[0,1,0,0,-5],[1,0,0,0,5],[1,1,0,0,-5]];perimeter=orthogonalPerimeter;outlineConnect=0;targetShapes=umlLifeline;portConstraint=eastwest;newEdgeStyle={&quot;curved&quot;:0,&quot;rounded&quot;:0};" vertex="1" parent="e4eeKu0tLdhdqPBlOCCp-3">
          <mxGeometry x="46" y="100" width="10" height="110" as="geometry" />
        </mxCell>
        <mxCell id="e4eeKu0tLdhdqPBlOCCp-4" value="eatSpore()" style="html=1;verticalAlign=bottom;startArrow=circle;startFill=1;endArrow=open;startSize=6;endSize=8;curved=0;rounded=0;" edge="1" parent="1" target="e4eeKu0tLdhdqPBlOCCp-14">
          <mxGeometry width="80" relative="1" as="geometry">
            <mxPoint x="20" y="110" as="sourcePoint" />
            <mxPoint x="130" y="110" as="targetPoint" />
          </mxGeometry>
        </mxCell>
        <mxCell id="e4eeKu0tLdhdqPBlOCCp-8" value="" style="html=1;points=[[0,0,0,0,5],[0,1,0,0,-5],[1,0,0,0,5],[1,1,0,0,-5]];perimeter=orthogonalPerimeter;outlineConnect=0;targetShapes=umlLifeline;portConstraint=eastwest;newEdgeStyle={&quot;curved&quot;:0,&quot;rounded&quot;:0};" vertex="1" parent="1">
          <mxGeometry x="290" y="130" width="10" height="140" as="geometry" />
        </mxCell>
        <mxCell id="e4eeKu0tLdhdqPBlOCCp-9" value="eatSpore(i)" style="html=1;verticalAlign=bottom;endArrow=block;curved=0;rounded=0;entryX=0;entryY=0;entryDx=0;entryDy=5;" edge="1" target="e4eeKu0tLdhdqPBlOCCp-8" parent="1" source="e4eeKu0tLdhdqPBlOCCp-14">
          <mxGeometry relative="1" as="geometry">
            <mxPoint x="220" y="135" as="sourcePoint" />
          </mxGeometry>
        </mxCell>
        <mxCell id="e4eeKu0tLdhdqPBlOCCp-10" value="" style="html=1;verticalAlign=bottom;endArrow=open;dashed=1;endSize=8;curved=0;rounded=0;exitX=0;exitY=1;exitDx=0;exitDy=-5;" edge="1" source="e4eeKu0tLdhdqPBlOCCp-8" parent="1" target="e4eeKu0tLdhdqPBlOCCp-14">
          <mxGeometry relative="1" as="geometry">
            <mxPoint x="220" y="205" as="targetPoint" />
          </mxGeometry>
        </mxCell>
        <mxCell id="e4eeKu0tLdhdqPBlOCCp-13" value="" style="html=1;verticalAlign=bottom;endArrow=open;dashed=1;endSize=8;curved=0;rounded=0;exitX=0;exitY=1;exitDx=0;exitDy=-5;" edge="1" source="e4eeKu0tLdhdqPBlOCCp-11" parent="1" target="e4eeKu0tLdhdqPBlOCCp-8">
          <mxGeometry relative="1" as="geometry">
            <mxPoint x="390" y="215" as="targetPoint" />
          </mxGeometry>
        </mxCell>
        <mxCell id="e4eeKu0tLdhdqPBlOCCp-12" value="eatSpore(i)" style="html=1;verticalAlign=bottom;endArrow=block;curved=0;rounded=0;entryX=0;entryY=0;entryDx=0;entryDy=5;" edge="1" target="e4eeKu0tLdhdqPBlOCCp-11" parent="1" source="e4eeKu0tLdhdqPBlOCCp-8">
          <mxGeometry relative="1" as="geometry">
            <mxPoint x="390" y="145" as="sourcePoint" />
          </mxGeometry>
        </mxCell>
        <mxCell id="e4eeKu0tLdhdqPBlOCCp-15" value="beStunned()" style="html=1;verticalAlign=bottom;endArrow=block;curved=0;rounded=0;" edge="1" target="e4eeKu0tLdhdqPBlOCCp-14" parent="1" source="e4eeKu0tLdhdqPBlOCCp-11">
          <mxGeometry x="0.0031" relative="1" as="geometry">
            <mxPoint x="457.5" y="180" as="sourcePoint" />
            <mxPoint x="132.5" y="180" as="targetPoint" />
            <mxPoint as="offset" />
          </mxGeometry>
        </mxCell>
        <mxCell id="e4eeKu0tLdhdqPBlOCCp-16" value="" style="html=1;verticalAlign=bottom;endArrow=open;dashed=1;endSize=8;curved=0;rounded=0;" edge="1" parent="1">
          <mxGeometry relative="1" as="geometry">
            <mxPoint x="457.5" y="220" as="targetPoint" />
            <mxPoint x="132.5" y="220" as="sourcePoint" />
          </mxGeometry>
        </mxCell>
        <mxCell id="e4eeKu0tLdhdqPBlOCCp-17" value="" style="shape=umlDestroy;whiteSpace=wrap;html=1;strokeWidth=3;targetShapes=umlLifeline;" vertex="1" parent="1">
          <mxGeometry x="449" y="330" width="30" height="30" as="geometry" />
        </mxCell>
      </root>
    </mxGraphModel>
  </diagram>
</mxfile>
